HIERARCHY
ROOT SimulationBone
{
	OFFSET 0.000000 0.000000 0.000000
	CHANNELS 6 Xposition Yposition Zposition Zrotation Yrotation Xrotation 
	JOINT Hips
	{
		OFFSET 0.000000 0.000000 0.000000
		CHANNELS 6 Xposition Yposition Zposition Zrotation Yrotation Xrotation 
		JOINT RightUpLeg
		{
			OFFSET 0.103457 1.857823 10.548503
			CHANNELS 3 Zrotation Yrotation Xrotation
			JOINT RightLeg
			{
				OFFSET 43.499996 -0.000034 0.000002
				CHANNELS 3 Zrotation Yrotation Xrotation
				JOINT RightFoot
				{
					OFFSET 42.372192 0.000011 -0.000001
					CHANNELS 3 Zrotation Yrotation Xrotation
					JOINT RightToe
					{
						OFFSET 17.300007 0.000003 0.000000
						CHANNELS 3 Zrotation Yrotation Xrotation
						End Site
						{
							OFFSET 0.000000 0.000000 0.000000
						}
					}
				}
			}
		}
		JOINT LeftUpLeg
		{
			OFFSET 0.103457 1.857824 -10.548503
			CHANNELS 3 Zrotation Yrotation Xrotation
			JOINT LeftLeg
			{
				OFFSET 43.500046 -0.000027 0.000015
				CHANNELS 3 Zrotation Yrotation Xrotation
				JOINT LeftFoot
				{
					OFFSET 42.372261 0.000004 0.000017
					CHANNELS 3 Zrotation Yrotation Xrotation
					JOINT LeftToe
					{
						OFFSET 17.299995 -0.000004 -0.000002
						CHANNELS 3 Zrotation Yrotation Xrotation
						End Site
						{
							OFFSET 0.000000 0.000000 0.000000
						}
					}
				}
			}
		}
		JOINT Spine
		{
			OFFSET 6.901969 -2.603723 -0.000001
			CHANNELS 3 Zrotation Yrotation Xrotation
			JOINT Spine1
			{
				OFFSET 12.588095 -0.000003 0.000006
				CHANNELS 3 Zrotation Yrotation Xrotation
				JOINT Spine2
				{
					OFFSET 12.343204 0.000006 -0.000008
					CHANNELS 3 Zrotation Yrotation Xrotation
					JOINT Neck
					{
						OFFSET 25.832893 -0.000006 0.000003
						CHANNELS 3 Zrotation Yrotation Xrotation
						JOINT Head
						{
							OFFSET 11.766609 -0.000008 0.000000
							CHANNELS 3 Zrotation Yrotation Xrotation
							End Site
							{
								OFFSET 0.000000 0.000000 0.000000
							}
						}
					}
					JOINT RightShoulder
					{
						OFFSET 19.745899 -1.480379 6.000108
						CHANNELS 3 Zrotation Yrotation Xrotation
						JOINT RightArm
						{
							OFFSET 11.284125 -0.000006 -0.000023
							CHANNELS 3 Zrotation Yrotation Xrotation
							JOINT RightForeArm
							{
								OFFSET 33.000050 -0.000002 0.000027
								CHANNELS 3 Zrotation Yrotation Xrotation
								JOINT RightHand
								{
									OFFSET 25.200008 0.000014 0.000008
									CHANNELS 3 Zrotation Yrotation Xrotation
									End Site
									{
										OFFSET 0.000000 0.000000 0.000000
									}
								}
							}
						}
					}
					JOINT LeftShoulder
					{
						OFFSET 19.746098 -1.480379 -6.000071
						CHANNELS 3 Zrotation Yrotation Xrotation
						JOINT LeftArm
						{
							OFFSET 11.284139 -0.000009 -0.000009
							CHANNELS 3 Zrotation Yrotation Xrotation
							JOINT LeftForeArm
							{
								OFFSET 33.000092 0.000008 0.000008
								CHANNELS 3 Zrotation Yrotation Xrotation
								JOINT LeftHand
								{
									OFFSET 25.199780 0.000137 0.000422
									CHANNELS 3 Zrotation Yrotation Xrotation
									End Site
									{
										OFFSET 0.000000 0.000000 0.000000
									}
								}
							}
						}
					}
				}
			}
		}
	}
}
MOTION
Frames: 14
Frame Time: 0.016667
-232.175393 0.000000 -264.486028 0.000000 62.827058 0.000000 0.184384 89.766602 0.262237 95.676920 0.162227 178.310075 157.265953 1.976594 -171.778151 -39.234713 -1.147444 -8.994978 76.032715 4.979209 -5.604334 21.454557 0.003116 0.000019 -175.502558 -4.987100 -168.473801 -22.341414 2.892715 -2.111227 91.602746 0.112541 -8.603589 21.454553 -0.003098 -0.000000 8.888515 -0.138489 1.908882 7.757531 -0.404348 3.804155 7.440196 -0.381522 3.806524 -16.479812 2.036481 3.808627 -2.444872 -2.154351 4.953305 148.337705 -71.408593 31.244278 16.144413 59.762125 39.517179 -37.991355 -14.289912 1.387879 13.839940 -5.608574 15.784304 178.238595 74.311191 -0.439689 -21.646120 -50.633783 -9.923787 -56.968869 17.930143 -2.186291 5.933287 16.606628 -6.823688 
-231.225638 0.000000 -265.815439 0.000000 62.026966 0.000000 0.094260 89.644410 0.280857 95.398302 0.147618 178.684119 157.077939 2.356259 -171.988668 -34.298110 -1.006481 -9.075424 74.810572 4.561280 -7.131386 21.454556 0.003105 0.000017 -174.550799 -5.069200 -168.710373 -21.973828 3.014834 -2.288797 92.152901 0.303435 -8.343807 21.454553 -0.003091 0.000001 8.841334 -0.157261 1.958912 7.662364 -0.443590 3.903089 7.345059 -0.420163 3.905685 -16.429616 1.757949 4.017419 -2.503346 -1.938814 4.988225 148.539545 -71.431063 31.036349 16.773285 59.906324 40.494910 -37.810312 -14.267236 1.381727 13.974136 -4.881191 16.351794 177.894463 74.524183 -0.787393 -22.297218 -50.317486 -9.335550 -57.363702 17.788161 -2.191348 6.113990 16.623039 -7.173435 
-230.260230 0.000000 -267.144394 0.000000 61.233394 0.000000 -0.012033 89.562973 0.323212 95.105772 0.117302 179.003484 157.037797 2.490201 -172.622704 -29.203432 -1.540039 -9.249926 73.599905 4.604317 -7.368668 21.454557 0.003101 0.000016 -173.561828 -5.181395 -168.954565 -21.437923 3.078313 -2.472524 92.402350 0.445051 -8.317304 21.454555 -0.003093 0.000001 8.790192 -0.185743 2.021659 7.558819 -0.502828 4.026865 7.241564 -0.478652 4.029815 -16.447615 1.644356 4.171801 -2.501488 -1.805606 5.057488 148.540206 -71.442997 31.034878 17.283583 59.977870 41.289328 -37.690701 -14.126748 1.369789 14.010792 -4.371748 16.796774 177.447181 74.653602 -1.242685 -22.783160 -50.057246 -8.929723 -57.590788 17.759662 -2.197351 6.125386 16.331390 -7.228823 
-229.280441 0.000000 -268.472486 0.000000 60.447369 0.000000 -0.109211 89.473476 0.374629 94.835017 0.108889 179.301379 157.126947 2.479017 -173.677781 -24.255663 -2.370574 -9.487269 72.593211 4.715438 -7.529003 21.454558 0.003102 0.000016 -172.522944 -5.315668 -169.177792 -20.850431 3.124950 -2.681759 92.511514 0.573270 -8.441172 21.454556 -0.003097 0.000000 8.742558 -0.212087 2.088125 7.462268 -0.558046 4.158245 7.145069 -0.533079 4.161527 -16.515090 1.608103 4.302829 -2.491832 -1.740243 5.152057 148.498415 -71.447286 31.077342 17.683789 59.983743 41.934675 -37.686839 -13.977550 1.360279 14.041716 -3.845999 17.131427 176.906414 74.741497 -1.794644 -23.147927 -49.894345 -8.657448 -57.658992 17.803274 -2.202687 6.094989 15.941528 -7.157944 
-228.287545 0.000000 -269.799309 0.000000 59.669920 0.000000 -0.172833 89.327103 0.419074 94.623215 0.158934 179.610588 157.327028 2.425603 -175.152647 -19.772322 -3.136788 -9.683531 71.991313 4.460113 -8.808824 21.454558 0.003104 0.000017 -171.421615 -5.464996 -169.351303 -20.328388 3.196143 -2.935411 92.641318 0.722389 -8.631333 21.454555 -0.003096 -0.000000 8.705937 -0.224478 2.149286 7.388218 -0.585355 4.279884 7.071069 -0.559661 4.283330 -16.613991 1.561478 4.441392 -2.526986 -1.728109 5.262678 148.573319 -71.446720 31.000799 17.984614 59.930038 42.467365 -37.852856 -13.928760 1.360923 14.161934 -3.070932 17.370090 176.278194 74.829875 -2.435982 -23.434281 -49.868767 -8.471010 -57.576902 17.877634 -2.204881 6.150877 15.663852 -7.129602 
-227.282816 0.000000 -271.124455 0.000000 58.902078 0.000000 -0.191046 89.090257 0.442696 94.497843 0.286487 179.960717 157.587133 2.417301 -177.014895 -16.116915 -3.574255 -9.676786 71.982651 3.549067 -11.878496 21.454556 0.003106 0.000018 -170.265909 -5.626882 -169.458440 -19.978981 3.308213 -3.234701 92.915163 0.912603 -8.809913 21.454551 -0.003087 0.000001 8.685979 -0.215362 2.197580 7.348357 -0.569453 4.377075 7.031243 -0.543185 4.380422 -16.730576 1.438106 4.610348 -2.635318 -1.742090 5.377800 148.856181 -71.441689 30.711874 18.191219 59.824473 42.894174 -38.199152 -14.027074 1.375468 14.409224 -1.983293 17.553462 175.583150 74.949479 -3.144626 -23.673902 -50.005926 -8.329922 -57.348877 17.944697 -2.201248 6.370489 15.630414 -7.262130 
-226.267525 0.000000 -272.447518 0.000000 58.144869 0.000000 -0.199388 88.790207 0.445573 94.441875 0.444654 -179.630470 157.735815 2.468793 -179.106507 -13.804533 -3.732285 -9.306892 72.576742 2.320834 -15.328030 21.454558 0.003110 0.000017 -169.145591 -5.812700 -169.531470 -19.868349 3.378879 -3.512062 93.305916 1.106213 -8.927313 21.454548 -0.003081 0.000001 8.680815 -0.194136 2.231360 7.338639 -0.528995 4.445932 7.021551 -0.502317 4.449031 -16.866705 1.256962 4.799798 -2.748051 -1.705932 5.476515 149.166685 -71.424214 30.395501 18.282332 59.683646 43.099130 -38.560194 -14.069880 1.387843 14.587568 -1.196961 17.810690 174.923289 75.086704 -3.816393 -23.857155 -50.275741 -8.219912 -56.962759 17.979761 -2.189438 6.622553 15.659378 -7.470787 
-225.242945 0.000000 -273.768089 0.000000 57.399318 0.000000 -0.234057 88.468817 0.432752 94.428103 0.567858 -179.163954 157.643639 2.585984 178.774571 -13.191234 -3.693756 -8.542440 73.463561 1.247214 -17.434317 21.454563 0.003118 0.000015 -168.147626 -6.010524 -169.569574 -20.033183 3.317601 -3.725960 93.741648 1.275223 -8.960418 21.454548 -0.003086 0.000000 8.686892 -0.176517 2.251446 7.351347 -0.495324 4.487139 7.034283 -0.468388 4.490033 -17.029956 1.058707 4.993940 -2.792687 -1.565840 5.546241 149.326212 -71.397393 30.234186 18.227962 59.529389 43.004349 -38.776574 -13.891743 1.382020 14.512536 -1.257880 18.210544 174.398889 75.215821 -4.349413 -23.966438 -50.637420 -8.166832 -56.415322 17.979787 -2.169439 6.764656 15.563382 -7.627283 
-224.210351 0.000000 -275.085763 0.000000 56.666440 0.000000 -0.287471 88.165466 0.407807 94.438448 0.578678 -178.704546 157.466050 2.862505 176.884032 -13.838842 -3.410804 -7.781508 73.568165 0.738253 -17.256784 21.454567 0.003122 0.000014 -167.267289 -6.108000 -169.389511 -20.436691 3.101424 -4.005987 94.120197 1.492071 -8.960465 21.454551 -0.003096 0.000000 8.701521 -0.186615 2.262583 7.380144 -0.516778 4.508673 7.063094 -0.489702 4.511696 -17.236028 0.885514 5.186377 -2.779770 -1.405685 5.618000 149.434906 -71.412200 30.122007 17.980639 59.395528 42.798752 -38.892537 -13.724178 1.373747 14.288710 -1.767568 18.528766 173.996405 75.302579 -4.758718 -23.995849 -51.062743 -8.327751 -55.754946 18.015353 -2.148347 6.816437 15.452477 -7.627345 
-223.171015 0.000000 -276.400132 0.000000 55.947241 0.000000 -0.339450 87.919218 0.368704 94.461396 0.406004 -178.335046 157.421786 3.381540 175.500241 -15.087849 -2.913983 -7.468147 72.143794 1.142705 -14.462019 21.454563 0.003117 0.000016 -166.463719 -5.985254 -168.879892 -21.004411 2.749071 -4.459594 94.329730 1.814066 -8.983770 21.454552 -0.003101 0.000001 8.721651 -0.247057 2.273714 7.418001 -0.638981 4.526962 7.100950 -0.611795 4.530723 -17.467554 0.765168 5.374047 -2.764905 -1.304522 5.720238 149.603794 -71.505536 29.942873 17.521430 59.305218 42.647663 -38.992106 -13.806062 1.381496 14.070179 -2.214979 18.558740 173.668863 75.312144 -5.093598 -23.914899 -51.530633 -8.865388 -55.021175 18.149288 -2.131217 6.847935 15.455145 -7.392207 
-222.126209 0.000000 -277.710789 0.000000 55.242715 0.000000 -0.363857 87.770348 0.295466 94.511675 0.014296 -178.146113 157.717852 4.042891 174.939313 -16.187886 -2.629516 -7.765394 70.411265 2.434920 -10.440766 21.454558 0.003109 0.000018 -165.642879 -5.571702 -168.408505 -21.589804 2.385927 -4.940645 94.251343 2.134309 -9.035275 21.454553 -0.003099 0.000001 8.741879 -0.366157 2.306721 7.453587 -0.879740 4.585194 7.136539 -0.852207 4.590405 -17.567624 0.665730 5.558247 -2.900553 -1.184617 5.827349 149.703702 -71.612502 29.833404 16.973653 59.226187 42.364605 -39.114139 -14.009263 1.398008 13.883013 -2.569963 18.460176 173.349189 75.217816 -5.423700 -23.595893 -52.035392 -9.824023 -54.168730 18.339201 -2.114189 6.971252 15.473466 -6.922487 
-221.077207 0.000000 -279.017327 0.000000 54.553844 0.000000 -0.342678 87.747877 0.167795 94.591485 -0.616740 -178.202934 158.479450 4.764224 175.426827 -16.548661 -2.890074 -8.711491 69.619166 4.308899 -6.636892 21.454556 0.003108 0.000017 -164.775256 -4.823901 -168.257860 -22.121232 2.074096 -5.324635 93.805755 2.365835 -9.081830 21.454552 -0.003093 0.000000 8.754608 -0.548246 2.376907 7.471171 -1.248408 4.713748 7.154141 -1.220101 4.721173 -17.431398 0.567546 5.739421 -3.259250 -0.973716 5.917115 149.630289 -71.678225 29.904058 16.445000 59.124493 41.728166 -39.267012 -14.150990 1.411203 13.729582 -2.901472 18.416318 173.000376 75.003302 -5.787615 -22.946376 -52.572282 -11.187931 -53.134652 18.512612 -2.090952 7.265168 15.397647 -6.264164 
-220.025282 0.000000 -280.319339 0.000000 53.881594 0.000000 -0.293094 87.834579 -0.014294 94.620674 -1.479995 -178.458515 159.468975 5.748303 176.769462 -16.327511 -3.269779 -10.212144 69.257407 6.529886 -3.147549 21.454558 0.003109 0.000016 -164.123722 -3.798293 -167.903330 -22.880895 1.493233 -5.808090 93.078866 2.668917 -8.985752 21.454553 -0.003087 -0.000001 8.746266 -0.795980 2.460320 7.443447 -1.748158 4.864944 7.126417 -1.718931 4.875373 -17.300652 0.563772 5.911677 -3.497801 -0.780058 6.039453 149.639594 -71.788407 29.887106 15.829674 59.020161 40.720999 -39.382955 -14.196762 1.417168 13.661724 -3.201192 18.332883 172.715034 74.687097 -6.090093 -22.127985 -53.141998 -12.801333 -51.869265 18.582209 -2.051493 7.639245 15.304849 -5.562470 
-218.971707 0.000000 -281.616418 0.000000 53.226915 0.000000 -0.233964 88.000101 -0.238617 94.541663 -2.535583 -178.813156 160.436544 7.137812 178.591216 -15.905713 -3.323456 -12.047342 68.702089 8.885303 0.015135 21.454558 0.003108 0.000016 -163.940839 -2.591437 -166.866199 -24.200183 0.364761 -6.547877 92.115779 3.178075 -8.660847 21.454554 -0.003084 -0.000001 8.710438 -1.102610 2.524400 7.358277 -2.363074 4.974695 7.041180 -2.333165 4.988829 -17.398272 0.717333 6.078598 -3.325432 -0.693218 6.238637 150.008620 -71.998233 29.495617 15.003422 58.906915 39.391161 -39.373472 -14.162608 1.414761 13.706176 -3.487906 18.073953 172.554689 74.312611 -6.266688 -21.345482 -53.766783 -14.497499 -50.316849 18.491058 -1.991576 7.973239 15.288008 -4.913201 
